<?xml version="1.0" standalone="no"?>
<!DOCTYPE svg PUBLIC "-//W3C//DTD SVG 20010904//EN"
 "http://www.w3.org/TR/2001/REC-SVG-20010904/DTD/svg10.dtd">
<svg version="1.0" xmlns="http://www.w3.org/2000/svg"
 width="1000.000000pt" height="1000.000000pt" viewBox="0 0 300.000000 169.000000"
 preserveAspectRatio="xMidYMid meet">
<metadata>
Created by potrace 1.10, written by Peter Selinger 2001-2011
</metadata>
<g transform="translate(0.000000,169.000000) scale(0.100000,-0.100000)"
fill="#000000" stroke="none">
<path d="M1267 1646 c-48 -29 -61 -43 -22 -23 31 16 74 46 65 46 -3 0 -22 -10
-43 -23z"/>
<path d="M1360 1617 c4 -41 5 -41 8 -8 2 18 0 37 -5 42 -5 5 -6 -11 -3 -34z"/>
<path d="M1653 1644 c-3 -8 -2 -19 3 -23 15 -13 75 -31 69 -21 -10 16 7 11 44
-11 18 -11 31 -22 28 -25 -3 -3 -17 2 -31 11 -14 10 -26 15 -26 12 0 -2 32
-26 70 -52 39 -26 80 -61 91 -76 11 -16 30 -34 42 -40 l22 -10 -21 18 c-11 10
-19 25 -17 33 4 13 3 13 -7 0 -8 -10 -10 -11 -8 -2 6 22 12 19 53 -27 37 -41
38 -44 15 -38 -21 5 -22 4 -9 -6 10 -8 14 -19 9 -31 -6 -19 -7 -19 -12 2 -4
12 -11 22 -17 22 -6 0 -1 -17 12 -37 13 -21 29 -53 36 -70 7 -18 18 -30 23
-27 7 4 7 9 0 13 -6 3 -14 19 -17 34 -4 15 -11 27 -16 27 -6 0 -6 7 0 18 9 18
11 24 11 43 0 8 4 8 13 0 10 -8 14 -7 14 4 0 8 -3 12 -7 10 -4 -2 -20 12 -36
32 -55 70 -63 78 -64 65 0 -7 -33 14 -72 47 -83 67 -150 104 -172 95 -9 -3
-16 -2 -16 4 0 6 6 13 13 15 9 4 9 6 -1 6 -7 1 -15 -6 -19 -15z m57 -24 c13
-8 13 -10 -2 -10 -9 0 -20 5 -23 10 -8 13 5 13 25 0z m131 -87 l24 -26 -32 23
c-34 25 -39 30 -25 30 5 0 19 -12 33 -27z m54 -43 c10 -11 16 -20 13 -20 -3 0
-13 9 -23 20 -10 11 -16 20 -13 20 3 0 13 -9 23 -20z"/>
<path d="M1711 1657 c40 -31 166 -111 144 -92 -37 32 -131 95 -141 95 -4 0 -5
-1 -3 -3z"/>
<path d="M1253 1609 c-28 -16 -71 -48 -97 -70 -26 -23 -50 -39 -53 -35 -4 4
11 21 32 39 85 70 86 80 3 13 -27 -20 -48 -43 -48 -50 0 -8 -6 -19 -14 -26 -8
-6 -12 -19 -10 -28 5 -14 3 -14 -6 1 -9 15 -8 22 6 38 9 10 12 19 6 19 -6 0
-12 -6 -15 -12 -7 -21 -52 28 -55 58 -1 15 -5 30 -8 33 -4 3 -4 -11 -2 -32 3
-29 1 -36 -10 -32 -7 3 0 -9 17 -26 l31 -31 -37 -46 c-54 -68 -61 -80 -34 -57
l24 20 -7 -25 c-5 -17 -4 -21 2 -11 7 10 11 10 17 1 9 -14 1 -23 -26 -27 -12
-2 -18 1 -14 7 3 5 1 10 -4 10 -6 0 -11 -8 -11 -19 0 -22 -30 -52 -30 -30 -1
9 -4 8 -11 -4 -6 -10 -8 -21 -5 -24 3 -4 6 0 6 8 0 11 2 11 10 -1 13 -20 13
-33 0 -25 -13 8 -13 3 5 -36 8 -19 14 -29 15 -22 0 6 3 20 6 30 5 14 4 15 -4
4 -7 -10 -10 -5 -9 22 0 20 5 33 9 31 5 -3 12 5 17 18 6 13 10 19 11 13 0 -5
5 -3 10 5 8 12 10 10 10 -8 0 -13 -4 -20 -10 -17 -6 3 -7 -1 -4 -10 4 -10 2
-15 -6 -13 -7 2 -14 -3 -15 -10 -2 -7 -1 -8 2 -2 3 7 10 4 19 -7 12 -16 15
-16 24 -3 5 8 9 20 9 25 0 6 -3 4 -6 -2 -11 -29 -20 -10 -9 20 19 52 39 84 44
69 2 -7 -4 -22 -13 -32 -9 -10 -15 -24 -13 -30 2 -7 14 8 26 33 12 24 32 49
44 55 13 6 17 11 9 11 -8 1 -23 -6 -33 -16 -22 -20 -24 -1 -3 21 9 8 22 31 30
50 13 31 55 69 55 49 0 -4 6 -1 13 6 6 6 12 17 12 23 0 6 6 13 14 16 8 3 11 0
7 -6 -5 -8 158 88 170 101 1 1 -8 3 -20 3 -13 1 -46 -11 -73 -27z m66 17 c-19
-16 -89 -55 -89 -48 0 9 69 51 84 52 5 0 7 -2 5 -4z m-99 -56 c0 -5 -10 -15
-22 -21 -23 -12 -23 -12 -4 10 21 23 26 26 26 11z m-182 -95 c-3 -3 -13 7 -23
22 l-17 28 23 -22 c12 -12 20 -25 17 -28z m16 -30 c3 -8 -6 -32 -20 -52 -33
-49 -31 -48 -44 -24 -9 18 -6 27 16 56 29 38 39 43 48 20z"/>
<path d="M1011 1414 c-20 -25 -20 -51 0 -38 5 3 7 10 3 15 -3 6 2 19 12 30 9
10 14 19 11 19 -3 0 -15 -12 -26 -26z"/>
<path d="M1538 1623 c7 -3 16 -2 19 1 4 3 -2 6 -13 5 -11 0 -14 -3 -6 -6z"/>
<path d="M1478 1613 c6 -2 18 -2 25 0 6 3 1 5 -13 5 -14 0 -19 -2 -12 -5z"/>
<path d="M1578 1613 c7 -3 16 -2 19 1 4 3 -2 6 -13 5 -11 0 -14 -3 -6 -6z"/>
<path d="M1332 1590 c0 -14 2 -19 5 -12 2 6 2 18 0 25 -3 6 -5 1 -5 -13z"/>
<path d="M1428 1603 c6 -2 18 -2 25 0 6 3 1 5 -13 5 -14 0 -19 -2 -12 -5z"/>
<path d="M1535 1590 c47 -7 45 -7 -30 -8 -141 -1 -258 -51 -348 -151 -41 -46
-67 -121 -67 -196 0 -28 -4 -55 -9 -60 -18 -22 -33 -102 -22 -123 13 -25 14
-86 2 -128 -6 -21 -4 -41 6 -67 13 -31 20 -37 44 -37 35 0 69 -31 69 -62 0
-13 -7 -41 -15 -63 -19 -53 -19 -85 0 -85 16 0 25 30 22 70 -2 20 2 25 21 24
18 -1 22 4 23 30 1 30 1 30 9 6 l8 -25 1 28 c1 18 -4 27 -15 27 -9 0 -25 23
-40 55 -20 43 -30 55 -48 55 -22 0 -46 17 -46 32 0 5 10 2 23 -6 35 -21 87
-28 87 -11 0 7 9 30 21 49 21 36 36 48 26 22 -8 -19 3 -28 18 -16 9 8 14 3 18
-17 3 -16 14 -33 25 -40 18 -11 19 -10 6 25 -7 20 -13 49 -14 65 0 30 -2 31
-33 17 -22 -10 -22 -10 1 6 12 9 22 20 22 23 0 11 -70 84 -99 103 -37 25 -107
24 -114 -1 -4 -17 0 -19 27 -14 24 4 39 -1 62 -20 16 -13 33 -25 39 -25 5 0
11 -5 13 -10 5 -17 -30 -7 -40 11 -11 21 -41 22 -58 2 -11 -13 -8 -65 6 -117
6 -22 27 -23 44 -4 9 12 6 24 -15 60 -16 28 -22 47 -15 51 5 3 10 -1 10 -10 0
-9 9 -28 20 -42 11 -14 20 -32 20 -39 0 -26 15 -14 26 20 6 21 7 34 1 33 -5
-1 -11 3 -14 10 -4 12 14 12 34 0 6 -4 19 -4 29 0 12 4 15 3 10 -5 -4 -7 -13
-12 -20 -12 -8 0 -19 -14 -26 -30 -16 -39 -46 -60 -85 -60 -38 0 -55 16 -55
51 0 15 -5 40 -10 55 -6 15 -8 35 -4 43 5 14 7 14 13 -1 6 -17 7 -17 18 1 10
16 9 19 -13 19 -33 0 -36 4 -25 36 9 22 17 26 50 26 55 0 82 -12 122 -54 39
-42 46 -44 51 -15 5 36 51 62 119 67 45 3 64 1 70 -9 6 -10 8 -7 6 9 0 12 -7
22 -14 22 -7 0 -13 5 -13 10 0 6 -8 10 -18 10 -35 0 -42 21 -42 128 0 131 6
142 70 142 28 0 50 -4 50 -10 0 -5 -23 -10 -51 -10 -46 0 -50 -2 -44 -20 4
-11 2 -20 -4 -20 -6 0 -11 -5 -11 -12 0 -6 3 -8 7 -5 3 4 13 -2 20 -13 10 -15
21 -18 39 -14 20 5 23 3 18 -11 -5 -13 -9 -14 -15 -3 -5 7 -9 8 -9 2 0 -5 -13
-9 -30 -8 -26 2 -30 -1 -30 -23 0 -13 4 -21 10 -18 5 3 18 1 27 -4 10 -6 14
-11 10 -11 -13 0 20 -30 33 -30 6 0 9 -4 6 -8 -8 -14 -59 -8 -63 8 -4 13 -3
13 6 0 5 -8 13 -11 17 -7 9 9 -15 37 -32 37 -25 0 -15 -35 15 -53 36 -21 71
-22 71 -2 0 16 16 20 24 6 7 -10 -22 -37 -49 -45 -12 -3 -9 -4 8 -2 15 2 27
-1 27 -5 0 -5 -5 -9 -12 -9 -6 0 -8 -3 -5 -6 4 -4 13 -2 20 4 16 14 27 6 27
-20 0 -12 -6 -19 -17 -17 -10 1 -22 0 -28 -1 -5 -1 -42 -1 -81 0 -63 1 -74 -1
-100 -23 -27 -23 -28 -27 -14 -51 14 -27 49 -42 74 -33 9 4 13 17 11 41 -4 39
2 42 70 37 91 -6 155 -62 155 -134 0 -24 -5 -48 -11 -54 -17 -17 -20 -103 -3
-103 8 0 14 -4 14 -10 0 -5 20 -10 45 -10 39 0 51 6 96 46 30 26 57 43 66 40
8 -3 11 -1 8 4 -3 6 0 10 8 10 23 0 41 29 48 79 l6 46 2 -48 c1 -39 -4 -53
-24 -73 -14 -14 -22 -30 -19 -36 4 -7 14 -2 26 13 l20 24 -18 -32 c-17 -30
-19 -31 -35 -17 -23 21 -51 14 -66 -16 -6 -14 -15 -77 -18 -140 -10 -170 -13
-178 -92 -236 -85 -62 -98 -70 -89 -56 4 6 38 34 76 62 37 29 71 59 75 68 3 8
8 63 10 121 3 58 9 121 14 139 l10 33 -39 -33 c-33 -28 -38 -39 -39 -76 -1
-33 -7 -49 -28 -68 -16 -15 -23 -28 -17 -32 12 -8 17 -66 8 -94 -3 -11 -12
-17 -20 -14 -10 4 -14 -3 -14 -28 0 -29 -8 -39 -52 -74 -62 -47 -119 -82 -133
-82 -5 0 13 13 40 29 28 16 69 46 93 66 36 31 42 42 42 75 0 30 3 38 14 34 17
-7 30 28 21 57 l-7 21 -24 -23 c-15 -14 -22 -29 -19 -40 3 -10 1 -20 -4 -24
-7 -3 -8 0 -5 10 5 11 2 14 -11 9 -10 -4 -15 -14 -12 -25 3 -12 -1 -17 -13
-16 -12 1 -16 7 -12 21 4 14 2 17 -8 11 -10 -6 -12 -4 -7 8 4 11 1 17 -8 17
-20 0 -19 -27 0 -47 13 -12 13 -18 3 -30 -11 -14 -13 -13 -19 8 l-6 24 -12
-28 c-14 -35 -14 -40 -1 -32 6 3 10 1 10 -5 0 -6 -8 -10 -17 -8 -10 1 -23 -1
-29 -4 -15 -10 -56 21 -50 37 3 8 0 16 -7 19 -9 3 -9 5 1 5 6 1 12 5 12 10 0
5 -9 7 -21 4 -13 -4 -20 -13 -18 -27 2 -36 -1 -47 -11 -41 -6 4 -10 16 -8 27
3 21 -26 48 -38 36 -3 -4 -3 -15 1 -25 5 -12 9 -14 12 -5 3 6 9 12 14 12 5 0
4 -8 -2 -19 -12 -18 -12 -18 -31 1 -18 18 -18 19 2 47 25 36 26 61 1 61 -15 0
-20 -9 -24 -48 -2 -26 1 -66 7 -89 7 -32 7 -46 -2 -55 -9 -9 -12 -6 -12 15 0
31 -19 77 -32 77 -5 0 -6 -4 -3 -10 3 -5 2 -10 -3 -10 -4 0 -16 16 -26 36 -12
26 -20 34 -27 27 -8 -8 -8 -17 0 -31 6 -11 16 -43 22 -71 12 -55 32 -83 53
-75 7 3 16 -2 20 -12 5 -13 14 -15 44 -10 20 4 32 3 25 -2 -8 -5 3 -8 27 -9
22 -1 42 2 45 8 4 5 10 7 15 4 11 -7 62 18 107 51 35 26 48 31 37 12 -4 -6 10
-1 32 12 86 52 154 101 162 118 5 9 12 69 16 132 8 148 15 175 47 177 13 0 30
1 36 2 25 2 44 61 43 129 -1 37 1 75 5 86 15 35 -3 251 -26 311 -29 79 -95
142 -203 196 -71 35 -99 43 -149 45 l-62 2 50 -8z m173 -60 c23 -16 46 -30 50
-30 13 -1 52 -38 52 -51 0 -8 -7 -6 -20 6 -11 10 -20 15 -20 12 0 -3 -17 9
-37 28 l-38 34 -26 -25 c-17 -16 -29 -22 -33 -15 -4 6 0 11 8 11 8 0 20 9 26
20 8 15 6 21 -9 30 -11 5 -29 10 -40 10 -12 0 -21 4 -21 9 0 16 62 -7 108 -39z
m-103 22 c33 -10 25 -16 -35 -27 -53 -9 -163 -15 -120 -6 l35 7 -37 5 c-22 3
-36 1 -35 -6 1 -5 -14 -11 -33 -13 -19 -2 -42 -9 -50 -16 -23 -19 -49 -26 -56
-15 -17 28 68 65 181 78 69 8 107 6 150 -7z m37 -35 c-12 -13 -19 -27 -15 -31
4 -4 0 -4 -10 0 -9 3 -15 10 -12 14 3 5 -7 11 -22 13 -24 3 -24 4 4 3 18 0 38
5 45 12 22 22 32 12 10 -11z m73 -27 c18 -20 17 -20 -20 -20 -37 0 -38 0 -20
20 10 11 19 20 20 20 1 0 10 -9 20 -20z m-239 -8 c-27 -2 -59 -10 -70 -18 -24
-16 -56 -19 -56 -4 0 6 15 11 33 11 31 2 32 2 3 6 -37 6 -51 -9 -48 -52 2 -27
-1 -33 -13 -29 -10 4 -15 0 -15 -14 0 -11 -7 -25 -15 -32 -10 -8 -13 -23 -9
-45 3 -18 1 -36 -4 -39 -4 -2 -9 14 -11 36 -1 23 -6 49 -11 59 -11 20 -13 92
-3 102 3 4 12 -5 20 -19 15 -31 16 -37 4 -30 -5 4 -11 1 -13 -6 -6 -17 3 -58
12 -58 4 0 5 11 3 24 -4 17 0 25 16 29 24 6 28 27 5 27 -8 0 -12 5 -9 10 4 6
11 8 16 5 5 -3 6 0 4 8 -12 29 58 46 155 37 l55 -5 -49 -3z m152 -9 c31 -16
60 -23 102 -23 32 0 62 -4 65 -10 3 -5 -2 -11 -12 -11 -17 -1 -17 -2 0 -6 9
-2 15 -8 12 -13 -3 -4 2 -13 10 -20 10 -9 15 -9 15 -1 0 6 4 11 8 11 8 0 10
-16 15 -102 1 -21 13 -24 20 -5 2 6 7 10 9 7 3 -3 1 -16 -4 -30 -7 -20 -11
-22 -18 -10 -8 12 -10 11 -10 -5 0 -12 6 -27 13 -34 10 -10 9 -11 -4 -6 -10 4
-20 2 -24 -4 -9 -16 -25 -13 -19 3 3 8 0 17 -6 21 -7 4 -9 -2 -6 -19 6 -32 -2
-34 -14 -3 -9 22 -9 22 -10 -3 0 -20 -2 -22 -10 -10 -8 13 -10 12 -10 -3 0
-16 6 -18 55 -12 79 10 95 -6 94 -94 0 -36 -5 -82 -12 -101 -10 -30 -17 -35
-47 -38 -19 -2 -38 -9 -42 -15 -6 -9 -8 -9 -8 1 0 6 -12 12 -26 12 -17 0 -23
-4 -18 -12 4 -7 -2 -4 -14 6 -12 11 -22 25 -22 33 0 7 -4 13 -10 13 -5 0 -10
-11 -10 -24 0 -14 -11 -38 -25 -54 -21 -25 -23 -35 -16 -55 12 -30 43 -27 66
6 12 18 15 18 15 5 0 -20 -37 -48 -63 -48 -11 0 -23 13 -32 32 -12 31 -11 34
16 66 32 37 39 93 15 127 -8 12 -15 59 -18 113 -5 91 -5 94 18 104 17 8 24 19
24 40 0 15 -5 28 -11 28 -5 0 -7 -4 -4 -10 3 -5 -2 -10 -12 -10 -15 0 -16 -2
-3 -10 13 -9 12 -12 -4 -25 -26 -20 -36 -19 -37 3 0 9 -2 25 -4 35 -3 14 1 18
14 14 9 -2 22 2 29 10 7 7 17 11 23 8 14 -9 11 2 -7 19 -8 9 -20 16 -27 16 -6
0 -3 -6 8 -13 16 -13 14 -14 -24 -14 -23 0 -44 4 -47 8 -2 5 -11 6 -18 3 -8
-3 -14 1 -13 8 1 34 -4 48 -18 48 -18 0 -20 16 -2 27 16 10 50 4 59 -11 5 -6
8 -7 8 -1 0 6 9 11 20 12 13 1 18 -2 14 -9 -4 -7 -2 -8 5 -4 21 13 0 26 -42
26 -40 0 -94 19 -57 20 13 0 13 1 0 10 -31 20 45 5 88 -17z m-388 -45 c-1 -29
1 -62 5 -73 5 -18 1 -20 -34 -21 -48 -1 -71 -18 -71 -50 0 -12 -5 -26 -11 -30
-11 -6 -9 53 4 101 3 11 6 23 6 28 1 7 91 97 98 97 2 0 3 -24 3 -52z m52 20
c-7 -7 -12 -8 -12 -2 0 6 3 14 7 17 3 4 9 5 12 2 2 -3 -1 -11 -7 -17z m574
-49 c8 -16 10 -30 5 -34 -11 -6 -24 11 -18 23 3 4 -5 16 -16 27 -11 11 -17 14
-13 8 4 -7 3 -13 -2 -13 -17 0 -22 13 -11 27 14 16 33 3 55 -38z m-474 5 c4
-30 2 -33 -29 -36 -21 -3 -31 0 -28 6 3 6 8 19 11 29 4 9 11 17 16 17 5 0 7 4
4 8 -3 5 1 9 9 9 8 0 15 -14 17 -33z m74 -1 c-10 -10 -19 5 -10 18 6 11 8 11
12 0 2 -7 1 -15 -2 -18z m61 2 c19 -13 20 -20 12 -47 -13 -49 -11 -52 15 -23
15 16 27 22 31 15 3 -5 3 -14 0 -20 -3 -5 0 -10 7 -10 8 0 13 -13 14 -35 0
-31 -2 -34 -23 -29 -14 4 -23 2 -23 -6 0 -6 5 -8 10 -5 20 13 32 -7 15 -25 -9
-10 -14 -24 -10 -31 5 -7 3 -10 -6 -7 -9 3 -15 21 -15 49 -2 56 -2 55 -16 41
-22 -22 -27 -13 -23 43 4 45 2 56 -14 64 -10 6 -22 7 -26 3 -5 -4 -5 -1 -1 6
5 7 14 11 22 8 8 -3 14 -1 14 4 0 5 -8 11 -17 13 -14 4 -14 5 -3 6 9 0 25 -6
37 -14z m387 -232 c2 -71 2 -103 0 -73 -7 89 -22 223 -28 245 -4 11 1 5 9 -12
10 -22 16 -74 19 -160z m-523 127 c4 -28 2 -57 -7 -78 -12 -30 -15 -32 -56
-28 -24 3 -47 5 -51 5 -5 1 -5 11 -2 22 5 15 4 19 -4 15 -6 -4 -11 -16 -11
-27 0 -16 -7 -19 -49 -19 -39 0 -51 4 -54 18 -4 14 -3 75 2 105 0 4 22 7 49 5
42 -3 47 -6 50 -28 4 -27 19 -50 33 -50 5 0 9 22 9 48 0 27 3 52 7 56 4 4 23
6 43 4 33 -3 35 -5 41 -48z m479 24 c0 -8 -5 -12 -10 -9 -6 4 -8 11 -5 16 9
14 15 11 15 -7z m-360 -5 c0 -6 -7 -8 -16 -5 -14 5 -15 4 -4 -8 6 -9 10 -21 7
-28 -3 -8 -9 -3 -15 12 -5 14 -8 28 -5 33 7 11 33 8 33 -4z m-390 -109 c0 -18
3 -21 9 -12 7 11 9 11 14 -2 4 -10 1 -16 -8 -16 -17 0 -21 6 -29 50 -5 26 -4
31 3 20 6 -8 11 -26 11 -40z m767 4 c-4 -15 -5 -14 -6 4 -1 15 -5 21 -13 16
-7 -5 -8 -3 -3 5 10 18 28 -2 22 -25z m-264 -14 c3 -11 0 -20 -6 -20 -9 0 -9
-2 -1 -8 11 -7 11 -30 0 -59 -5 -12 -15 -14 -44 -8 -20 3 -41 11 -46 16 -6 5
2 5 20 1 42 -12 64 -4 64 21 0 14 -3 18 -8 10 -5 -8 -12 -9 -22 -2 -11 8 -12
12 -2 16 6 2 12 13 12 22 0 34 25 42 33 11z m-195 -18 c2 -7 -5 -10 -17 -7
-28 5 -85 -19 -111 -47 l-20 -22 -32 30 c-18 16 -36 31 -40 34 -9 6 27 9 107
10 33 0 67 4 75 10 18 11 32 8 38 -8z m-46 -97 c-4 -34 -5 -35 -25 -22 -30 20
-32 36 -5 46 34 14 34 14 30 -24z m-162 16 c0 -6 -4 -13 -10 -16 -5 -3 -10 1
-10 9 0 9 5 16 10 16 6 0 10 -4 10 -9z m420 -43 l23 -33 -26 24 c-15 14 -27
28 -27 33 0 14 5 9 30 -24z m-561 -162 c-9 -8 -10 -7 -5 7 3 10 7 24 7 30 1 7
3 4 6 -7 3 -10 -1 -23 -8 -30z m688 21 c18 -3 35 -1 39 4 3 5 17 9 32 8 25 0
24 -2 -13 -18 -22 -10 -46 -26 -54 -35 -12 -15 -16 -15 -31 -1 -13 11 -24 13
-50 5 -43 -12 -52 -4 -14 12 20 9 28 19 26 31 -3 15 0 17 15 9 10 -6 33 -12
50 -15z m-647 -52 c7 -9 10 -18 7 -21 -10 -11 -37 5 -37 21 0 19 14 19 30 0z
m40 -10 c0 -8 -4 -15 -8 -15 -5 0 -9 7 -9 15 0 8 4 15 9 15 4 0 8 -7 8 -15z
m582 -162 c-6 -10 -20 -27 -33 -38 -19 -17 -18 -14 6 23 27 41 47 53 27 15z
m-8 -90 c-7 -64 -13 -74 -57 -105 l-30 -22 22 31 c18 24 22 41 20 77 -3 30 0
46 7 46 6 0 17 7 24 15 19 23 21 19 14 -42z m-97 -45 c-3 -8 -6 -5 -6 6 -1 11
2 17 5 13 3 -3 4 -12 1 -19z m-73 -126 c-73 -62 -114 -74 -114 -32 0 11 10 20
26 24 14 4 37 20 50 35 17 20 30 27 44 24 13 -3 20 0 21 8 1 8 4 5 6 -6 4 -14
-6 -29 -33 -53z m-314 -1 c0 -11 3 -28 6 -38 5 -16 4 -16 -10 1 -18 22 -21 56
-6 56 6 0 10 -9 10 -19z m105 -1 c4 -7 13 -7 26 0 15 8 21 7 25 -4 3 -8 11
-13 18 -10 14 5 18 -17 10 -55 -5 -22 -9 -23 -60 -19 -71 6 -80 15 -58 62 18
37 28 44 39 26z m-104 -67 c13 -16 12 -17 -3 -4 -10 7 -18 15 -18 17 0 8 8 3
21 -13z m66 -29 c-3 -3 -12 -4 -19 -1 -8 3 -5 6 6 6 11 1 17 -2 13 -5z"/>
<path d="M1568 1428 c-3 -7 -2 -22 2 -33 7 -19 7 -19 15 4 7 24 -8 53 -17 29z"/>
<path d="M1655 1430 c-3 -5 -18 -10 -33 -11 l-27 -1 25 -7 25 -8 -25 -5 c-20
-4 -17 -6 12 -7 41 -1 68 -29 68 -69 0 -13 7 -36 15 -52 14 -28 14 -30 -7 -41
-20 -11 -21 -10 -10 3 10 13 10 17 -3 21 -8 4 -14 3 -14 -1 4 -22 -2 -42 -11
-37 -5 3 -6 13 -3 23 5 14 4 15 -8 4 -11 -10 -11 -16 -1 -32 6 -11 12 -49 12
-84 0 -36 5 -68 10 -71 6 -3 10 -15 10 -26 0 -10 5 -19 11 -19 7 0 8 7 4 18
-4 9 -12 36 -18 60 -12 49 4 92 35 92 10 0 18 4 18 9 0 15 -27 20 -41 8 -10
-9 -10 -8 1 6 7 10 19 16 27 13 8 -3 11 -2 8 3 -3 5 -1 12 5 16 5 3 10 1 10
-6 0 -9 4 -8 13 3 18 23 55 29 60 9 3 -9 5 -1 6 17 0 17 -3 32 -7 32 -4 0 -6
16 -4 35 4 34 -17 75 -39 75 -11 0 14 -50 26 -51 15 -1 -27 -17 -47 -18 -12
-1 -18 6 -18 19 0 11 7 20 16 20 8 0 13 -4 9 -9 -3 -5 0 -13 6 -16 7 -5 9 1 7
16 -2 16 -9 24 -21 23 -13 -2 -15 1 -7 11 8 9 5 11 -14 8 -13 -3 -27 0 -30 6
-5 7 2 11 18 11 14 0 28 5 31 10 4 6 -8 10 -29 10 -20 0 -35 -3 -35 -7 4 -27
-1 -35 -16 -23 -8 7 -12 16 -9 21 3 5 3 9 0 9 -3 0 -8 -4 -11 -10z m16 -27
c13 -16 12 -17 -3 -4 -10 7 -18 15 -18 17 0 8 8 3 21 -13z m48 -12 c11 -7 14
-25 13 -63 -2 -34 0 -48 6 -39 7 10 11 10 17 1 4 -7 0 -19 -10 -28 -10 -10
-15 -12 -11 -5 3 6 1 13 -4 15 -6 2 -13 23 -15 47 -3 25 -9 49 -15 55 -22 22
-8 34 19 17z m88 -98 c1 -25 -2 -33 -16 -33 -9 0 -23 -6 -29 -12 -7 -7 -5 3 4
21 14 27 15 36 5 39 -10 3 -10 6 -2 12 24 14 36 6 38 -27z"/>
<path d="M1786 1162 c-3 -5 -19 -7 -36 -4 -18 2 -30 0 -30 -7 0 -6 -5 -10 -12
-8 -6 1 -13 -7 -15 -18 -3 -20 -3 -20 6 0 5 11 10 14 10 8 1 -7 8 -13 17 -13
11 0 15 -6 11 -19 -2 -10 0 -26 5 -35 7 -12 5 -16 -8 -16 -10 0 -14 5 -10 15
3 8 1 15 -5 15 -7 0 -8 -15 -3 -42 4 -24 7 -49 7 -56 0 -6 5 -11 11 -10 6 0
19 -2 29 -7 21 -9 22 -8 31 23 6 16 3 22 -9 22 -9 0 -14 -4 -10 -9 3 -5 0 -13
-6 -17 -9 -5 -10 0 -6 15 4 18 2 21 -14 16 -13 -4 -19 -2 -19 9 0 9 5 16 11
16 5 0 7 -4 4 -10 -3 -6 1 -7 10 -3 13 5 14 7 3 14 -10 6 -8 9 7 9 16 0 17 2
5 10 -8 5 -11 12 -8 15 13 13 30 -8 25 -32 -2 -13 -2 -21 1 -19 3 3 10 -1 16
-9 7 -9 16 -12 25 -6 17 11 5 32 -14 24 -8 -3 -15 0 -15 6 0 6 6 11 13 11 8 0
7 4 -3 11 -13 9 -12 10 2 5 10 -3 20 -1 23 4 8 13 25 13 25 0 0 -5 -7 -10 -15
-10 -22 0 -18 -21 5 -27 20 -5 28 -23 10 -23 -5 0 -7 -8 -3 -17 5 -15 3 -16
-8 -5 -16 14 -33 16 -24 2 3 -5 -1 -10 -9 -10 -9 0 -16 -4 -16 -8 0 -14 58 -1
72 15 8 9 12 47 13 97 l0 81 -33 3 c-18 2 -41 -3 -50 -10 -11 -9 -14 -10 -8 0
4 6 5 12 2 12 -3 0 -7 -4 -10 -8z m-31 -22 c-3 -5 -13 -10 -21 -10 -8 0 -12 5
-9 10 3 6 13 10 21 10 8 0 12 -4 9 -10z m100 -20 c3 -5 -8 -7 -24 -5 -18 2
-34 -2 -41 -11 -17 -20 -39 -18 -35 4 6 28 6 28 15 7 9 -20 9 -20 9 0 1 18 6
20 36 17 19 -2 37 -8 40 -12z m-14 -28 c-7 -2 -18 1 -23 6 -8 8 -4 9 13 5 13
-4 18 -8 10 -11z m39 -7 c0 -8 -2 -15 -4 -15 -2 0 -6 7 -10 15 -3 8 -1 15 4
15 6 0 10 -7 10 -15z"/>
<path d="M1710 1100 c0 -5 5 -10 10 -10 6 0 10 5 10 10 0 6 -4 10 -10 10 -5 0
-10 -4 -10 -10z"/>
<path d="M1547 1306 c-3 -8 -2 -18 4 -22 16 -9 22 2 11 21 -8 15 -10 16 -15 1z"/>
<path d="M1580 1279 c0 -5 5 -7 10 -4 6 3 10 8 10 11 0 2 -4 4 -10 4 -5 0 -10
-5 -10 -11z"/>
<path d="M1311 1275 l-1 -65 30 0 30 0 0 65 c0 65 0 65 -29 65 -28 0 -28 0
-30 -65z m39 -6 c0 -31 -4 -48 -10 -44 -5 3 -10 26 -10 51 0 24 5 44 10 44 6
0 10 -23 10 -51z"/>
<path d="M1168 1265 c-4 -61 -2 -65 42 -65 l38 0 1 55 0 55 -38 0 c-39 0 -39
0 -43 -45z m62 -10 c0 -30 -3 -35 -22 -35 -19 0 -23 5 -22 30 2 41 1 40 24 40
16 0 20 -7 20 -35z"/>
<path d="M1285 1221 c-3 -5 -1 -12 5 -16 5 -3 10 1 10 9 0 18 -6 21 -15 7z"/>
<path d="M1417 385 c-4 -8 -2 -17 3 -20 6 -4 10 3 10 14 0 25 -6 27 -13 6z"/>
<path d="M971 1574 c0 -11 3 -14 6 -6 3 7 2 16 -1 19 -3 4 -6 -2 -5 -13z"/>
<path d="M1680 1576 c0 -2 7 -7 16 -10 8 -3 12 -2 9 4 -6 10 -25 14 -25 6z"/>
<path d="M1255 1561 c-3 -5 -2 -12 3 -15 5 -3 9 1 9 9 0 17 -3 19 -12 6z"/>
<path d="M1179 1483 c-13 -16 -12 -17 4 -4 9 7 17 15 17 17 0 8 -8 3 -21 -13z"/>
<path d="M1105 1470 c-3 -5 -2 -10 4 -10 5 0 13 5 16 10 3 6 2 10 -4 10 -5 0
-13 -4 -16 -10z"/>
<path d="M1140 1460 c0 -5 5 -10 11 -10 5 0 7 5 4 10 -3 6 -8 10 -11 10 -2 0
-4 -4 -4 -10z"/>
<path d="M2015 1450 c-3 -6 -11 -8 -16 -5 -5 4 -9 2 -9 -3 0 -12 66 -10 77 2
5 5 3 6 -5 2 -7 -4 -19 -3 -27 4 -9 8 -15 8 -20 0z"/>
<path d="M1110 1435 c0 -8 4 -15 10 -15 5 0 7 7 4 15 -4 8 -8 15 -10 15 -2 0
-4 -7 -4 -15z"/>
<path d="M1420 1369 c0 -5 5 -7 10 -4 6 3 10 8 10 11 0 2 -4 4 -10 4 -5 0 -10
-5 -10 -11z"/>
<path d="M1051 1319 c-26 -40 -30 -53 -21 -62 10 -9 11 -9 6 0 -4 7 7 33 24
59 18 25 30 47 28 49 -2 2 -19 -19 -37 -46z"/>
<path d="M1928 1328 c11 -32 19 -42 22 -32 4 11 11 4 25 -25 10 -23 20 -39 22
-37 6 6 -32 77 -61 111 l-25 30 17 -47z"/>
<path d="M2003 1346 c0 -11 1 -16 4 -9 2 7 12 4 27 -10 12 -12 21 -25 19 -29
-2 -4 4 -15 14 -25 10 -10 17 -26 15 -34 -2 -9 4 -23 12 -31 8 -8 14 -21 13
-29 -3 -32 16 -119 28 -129 15 -13 16 5 1 29 -5 8 -3 16 5 22 11 7 10 9 -5 9
-14 0 -17 6 -14 25 3 14 1 25 -4 25 -4 0 -6 11 -2 25 4 16 2 25 -6 25 -6 0 -9
4 -5 9 8 14 -16 61 -28 54 -6 -4 -8 0 -4 10 3 9 2 19 -4 22 -5 4 -7 10 -4 15
3 5 1 11 -5 15 -6 4 -8 10 -5 15 3 5 1 11 -4 15 -6 3 -8 -6 -5 -21 3 -16 1
-23 -6 -19 -5 3 -10 12 -10 20 0 23 -26 25 -27 1z"/>
<path d="M2028 1283 c10 -21 16 -49 14 -63 -4 -23 -5 -24 -13 -5 -8 20 -8 20
-8 0 -1 -17 -3 -18 -12 -5 -9 12 -10 12 -5 -3 26 -80 10 -94 -17 -16 -27 76
-29 55 -2 -26 12 -38 25 -96 29 -127 l6 -58 -47 -1 c-46 -1 -46 -1 -15 -9 18
-4 42 -5 53 -3 18 5 20 11 14 57 -3 28 -9 64 -12 80 -4 23 -2 28 10 23 13 -5
14 0 5 30 -13 49 -2 54 13 4 9 -31 9 -44 0 -55 -13 -15 -5 -96 10 -96 4 0 3
15 -2 32 -11 42 -11 58 0 58 5 0 11 -12 13 -27 3 -28 4 -28 9 4 3 18 2 30 -3
27 -10 -6 -10 22 -1 56 6 21 10 13 24 -45 10 -38 18 -62 18 -51 1 23 -28 136
-40 156 -7 11 -8 7 -3 -11 4 -19 1 -26 -10 -26 -9 0 -16 1 -16 1 0 1 4 16 9
34 8 27 6 39 -11 67 -27 46 -33 45 -10 -2z"/>
<path d="M2090 1300 c6 -11 13 -20 16 -20 2 0 0 9 -6 20 -6 11 -13 20 -16 20
-2 0 0 -9 6 -20z"/>
<path d="M1062 1285 c-17 -37 -14 -45 4 -12 9 16 14 31 11 33 -2 2 -9 -7 -15
-21z"/>
<path d="M1940 1254 c0 -8 5 -12 10 -9 6 3 10 10 10 16 0 5 -4 9 -10 9 -5 0
-10 -7 -10 -16z"/>
<path d="M996 1210 c-9 -22 -16 -46 -16 -53 1 -6 10 10 20 37 11 28 18 51 16
53 -2 2 -11 -14 -20 -37z"/>
<path d="M1026 1201 c-8 -23 -19 -59 -22 -81 -4 -22 -9 -40 -13 -40 -3 0 -7
-16 -8 -36 -2 -43 -5 -47 -28 -38 -15 6 -16 15 -11 58 3 28 9 62 12 76 4 20 3
22 -5 10 -9 -13 -11 -13 -11 3 0 9 6 17 14 17 7 0 16 11 18 23 3 14 0 24 -7
24 -7 0 -10 -9 -8 -21 4 -17 3 -18 -5 -7 -9 12 -12 10 -16 -10 -3 -13 -9 -42
-14 -64 -9 -38 -10 -38 -12 -10 l-2 30 -8 -30 c-4 -16 -8 -47 -9 -67 0 -21 -5
-38 -10 -38 -4 0 -7 18 -5 40 1 22 -1 40 -5 40 -4 0 -7 -24 -8 -54 -1 -53 -1
-54 18 -38 12 11 19 29 19 53 0 25 4 36 15 36 17 0 22 -62 5 -70 -6 -3 -5 -4
2 -3 7 2 25 -3 39 -10 26 -13 27 -12 32 19 3 18 8 50 12 72 4 22 15 65 25 95
22 65 19 78 -4 21z m-89 -113 c-3 -7 -5 -2 -5 12 0 14 2 19 5 13 2 -7 2 -19 0
-25z"/>
<path d="M871 1204 c0 -11 3 -14 6 -6 3 7 2 16 -1 19 -3 4 -6 -2 -5 -13z"/>
<path d="M882 1168 c-7 -30 -9 -55 -4 -60 6 -6 12 9 17 34 7 40 8 41 16 18 7
-20 8 -19 4 10 -8 55 -21 55 -33 -2z"/>
<path d="M1942 1170 c0 -19 2 -27 5 -17 2 9 2 25 0 35 -3 9 -5 1 -5 -18z"/>
<path d="M2141 1175 c1 -19 18 -51 18 -35 0 8 -4 22 -9 30 -5 8 -9 11 -9 5z"/>
<path d="M848 1127 c-3 -19 -2 -25 4 -19 6 6 8 18 6 28 -3 14 -5 12 -10 -9z"/>
<path d="M963 1088 c-5 -29 -7 -57 -4 -63 3 -5 9 17 13 49 10 75 3 85 -9 14z"/>
<path d="M1428 1093 c6 -2 18 -2 25 0 6 3 1 5 -13 5 -14 0 -19 -2 -12 -5z"/>
<path d="M1483 1093 c9 -2 23 -2 30 0 6 3 -1 5 -18 5 -16 0 -22 -2 -12 -5z"/>
<path d="M841 1077 c-1 -11 -7 -17 -17 -15 -10 2 -18 -3 -20 -10 -1 -7 0 -8 3
-2 3 6 12 3 21 -8 10 -10 14 -13 10 -7 -4 6 -3 16 3 22 6 6 9 17 6 25 -4 8 -6
7 -6 -5z"/>
<path d="M1490 1083 c-56 -5 -71 -23 -65 -77 4 -34 3 -36 -5 -16 l-9 25 2 -25
c1 -14 8 -24 14 -23 7 2 14 -6 18 -16 3 -10 17 -23 31 -29 64 -30 114 -1 117
67 2 40 -1 47 -31 67 -20 14 -28 24 -20 27 7 3 9 5 3 4 -5 0 -30 -2 -55 -4z
m-12 -118 c12 -18 13 -18 7 9 -19 91 -20 86 11 86 44 -1 77 -31 76 -70 -1 -38
-9 -49 -45 -55 -17 -4 -35 3 -56 21 -27 22 -31 32 -30 72 l1 47 12 -45 c6 -25
17 -54 24 -65z"/>
<path d="M2182 1055 c0 -16 2 -22 5 -12 2 9 2 23 0 30 -3 6 -5 -1 -5 -18z"/>
<path d="M2156 1033 c-13 -71 -20 -82 -26 -38 -3 29 -10 40 -23 41 -12 1 -13
1 -2 -3 10 -3 15 -19 16 -51 1 -26 1 -51 0 -55 -1 -5 3 -6 9 -2 6 3 8 11 5 16
-4 5 -1 9 4 9 6 0 11 8 12 18 0 14 2 14 8 -3 5 -13 8 1 9 43 0 34 -1 62 -2 62
-2 0 -7 -17 -10 -37z"/>
<path d="M1310 1031 c0 -5 4 -12 9 -15 4 -3 8 -23 8 -44 0 -22 12 -64 26 -93
18 -39 23 -59 16 -71 -15 -27 -57 -51 -79 -45 -15 4 -22 -1 -26 -21 -4 -15
-11 -32 -16 -39 -6 -7 -5 -20 2 -33 6 -12 8 -34 5 -51 -5 -24 -3 -29 12 -29
15 0 18 7 17 33 0 17 -4 43 -8 55 -7 20 -5 23 10 20 15 -3 18 -12 15 -56 -1
-32 2 -52 8 -52 6 0 11 17 11 39 0 22 6 44 15 51 16 13 36 5 34 -13 -5 -39 2
-77 15 -77 20 0 27 58 7 64 -12 3 -11 6 6 11 12 4 25 16 28 26 4 10 11 19 17
19 6 0 4 -9 -4 -22 -8 -13 -18 -42 -22 -66 -6 -39 -5 -42 11 -33 10 5 18 15
19 23 3 41 20 81 40 95 13 8 24 21 24 28 0 21 59 65 88 65 23 0 24 1 9 13 -19
14 -19 88 1 124 7 12 12 28 11 35 0 7 -6 1 -12 -13 -39 -86 -122 -90 -191 -8
-17 20 -25 38 -21 50 5 15 1 19 -20 19 -14 0 -35 5 -46 10 -12 7 -19 7 -19 1z
m65 -50 c7 -22 65 -98 65 -85 0 4 4 4 10 -2 7 -7 3 -23 -10 -49 -18 -35 -18
-41 -5 -54 13 -13 19 -13 33 -3 9 7 25 15 35 18 9 4 17 13 17 20 0 8 10 14 25
14 34 0 31 -21 -5 -42 -17 -9 -34 -28 -39 -41 -10 -25 -29 -37 -61 -37 -11 0
-24 -9 -30 -20 -10 -18 -13 -19 -31 -6 -11 7 -29 11 -41 8 -16 -4 -19 -1 -16
14 2 11 11 18 22 17 12 -1 15 2 8 9 -6 6 -1 18 14 35 29 32 30 65 4 108 -25
40 -34 115 -14 115 7 0 15 -9 19 -19z m151 -120 c-46 -6 -50 -9 -58 -39 -5
-18 -13 -30 -18 -27 -6 4 -6 13 -1 23 5 9 12 25 15 35 4 14 16 17 58 15 l53
-1 -49 -6z m-16 -26 c0 -8 -2 -15 -4 -15 -2 0 -6 7 -10 15 -3 8 -1 15 4 15 6
0 10 -7 10 -15z m-210 -119 c-14 -14 -24 0 -16 21 6 15 8 15 16 3 6 -9 5 -19
0 -24z"/>
<path d="M2192 995 c0 -16 2 -22 5 -12 2 9 2 23 0 30 -3 6 -5 -1 -5 -18z"/>
<path d="M830 1005 c0 -5 5 -17 10 -25 5 -8 10 -10 10 -5 0 6 -5 17 -10 25 -5
8 -10 11 -10 5z"/>
<path d="M2064 995 c-4 -8 -10 -12 -15 -9 -5 3 -9 -4 -9 -15 0 -11 5 -23 10
-26 6 -4 8 -21 4 -43 -4 -20 -7 -43 -7 -49 0 -7 -4 -13 -9 -13 -5 0 -6 24 -3
53 5 49 4 48 -11 -17 -17 -75 -49 -147 -63 -143 -5 1 -21 -19 -35 -45 -29 -55
-28 -63 3 -15 17 27 21 29 21 11 0 -11 -11 -31 -25 -44 -25 -23 -33 -50 -16
-50 5 0 11 -10 14 -22 3 -21 4 -21 18 8 8 17 19 29 25 27 6 -2 23 15 38 38 15
22 30 38 33 36 8 -8 -56 -98 -91 -129 -33 -29 -52 -36 -40 -15 4 6 -7 -1 -24
-17 -17 -16 -30 -33 -29 -39 1 -5 -4 -12 -12 -15 -10 -3 -11 0 -5 9 7 12 5 12
-9 0 -9 -7 -14 -18 -11 -23 3 -5 -2 -8 -12 -6 -12 2 -18 -2 -16 -10 1 -7 -5
-12 -15 -10 -11 2 -17 -2 -15 -10 2 -10 -4 -12 -20 -7 -18 5 -20 4 -8 -4 10
-7 11 -11 3 -11 -7 0 -13 -6 -13 -14 0 -8 -12 -19 -27 -25 -25 -10 -25 -11 -3
-6 14 3 30 7 37 9 7 1 16 6 20 11 4 4 2 5 -4 1 -7 -4 -13 -3 -13 2 0 6 24 25
52 43 29 19 84 60 122 92 l69 58 22 -21 c12 -11 25 -20 30 -20 4 0 -4 10 -18
23 l-26 22 54 84 c47 71 95 188 95 229 0 6 6 13 13 15 7 4 6 6 -4 6 -12 1 -21
-17 -34 -66 -18 -72 -53 -159 -61 -151 -2 3 5 25 16 49 11 24 20 51 20 59 0 8
-11 -11 -24 -42 -20 -49 -79 -138 -92 -138 -11 0 -1 22 23 52 l27 33 -27 -24
c-15 -14 -27 -19 -27 -13 0 6 5 14 10 17 12 7 43 65 36 65 -3 0 -13 -15 -22
-32 -10 -18 -19 -27 -21 -21 -3 7 5 29 18 49 12 20 28 53 36 73 l14 36 -6 -40
c-3 -22 -7 -56 -10 -75 -3 -32 -2 -34 11 -16 8 12 10 24 5 29 -8 8 -3 36 17
87 6 17 9 26 11 38 1 4 6 0 11 -8 6 -9 10 -10 10 -3 0 6 -5 15 -10 18 -6 4 -8
21 -4 40 7 41 11 95 7 95 -2 0 -6 -7 -9 -15z m6 -29 c0 -3 -4 -8 -10 -11 -5
-3 -10 -1 -10 4 0 6 5 11 10 11 6 0 10 -2 10 -4z m-123 -355 c-12 -27 -15 -30
-26 -17 -10 12 -8 19 9 36 28 28 34 21 17 -19z m-47 -94 c0 -2 -10 -12 -22
-23 l-23 -19 19 23 c18 21 26 27 26 19z"/>
<path d="M931 955 c0 -22 3 -47 9 -55 8 -13 -3 -29 -21 -30 -12 0 -16 59 -5
64 6 2 2 5 -9 5 -12 1 -26 -4 -32 -10 -9 -9 -10 -7 -6 10 3 13 1 21 -7 21 -7
0 -10 -6 -7 -13 3 -8 1 -20 -4 -28 -6 -10 -9 -7 -9 13 0 15 -5 30 -10 33 -14
8 -3 -41 17 -75 12 -23 13 -23 8 -2 -5 16 -2 22 10 22 9 0 14 -4 11 -8 -9 -15
32 -162 46 -162 11 0 11 -2 -10 61 -22 63 -34 132 -23 124 5 -2 11 -23 15 -46
6 -39 8 -40 21 -23 7 10 15 17 17 14 8 -10 50 -125 60 -165 6 -22 14 -48 19
-57 14 -27 11 -32 -8 -17 -15 11 -15 10 1 -8 10 -13 22 -20 27 -17 8 4 39 -46
39 -63 0 -4 -21 13 -47 37 l-48 45 44 -47 c26 -27 49 -44 58 -41 10 4 11 9 2
19 -9 11 -8 19 7 37 15 17 15 19 2 8 -9 -7 -22 -10 -29 -6 -8 6 -8 10 1 15 10
6 8 17 -9 44 -13 20 -25 36 -28 36 -2 0 5 -15 17 -34 11 -19 16 -37 11 -40
-13 -8 -41 39 -41 69 0 14 -9 43 -20 65 -22 44 -49 131 -60 200 l-7 45 -2 -40z"/>
<path d="M956 964 c-8 -21 -8 -21 8 -21 8 0 11 8 8 19 -5 22 -8 23 -16 2z"/>
<path d="M1111 964 c0 -11 3 -14 6 -6 3 7 2 16 -1 19 -3 4 -6 -2 -5 -13z"/>
<path d="M992 945 c0 -16 2 -22 5 -12 2 9 2 23 0 30 -3 6 -5 -1 -5 -18z"/>
<path d="M1971 935 c0 -11 -4 -31 -7 -45 -5 -19 -4 -22 5 -14 7 6 11 26 8 45
-2 19 -5 25 -6 14z"/>
<path d="M2100 924 c0 -11 -4 -24 -9 -29 -5 -6 -5 -19 -1 -30 5 -15 8 -9 14
24 4 24 4 46 1 49 -3 3 -5 -4 -5 -14z"/>
<path d="M957 917 c4 -6 9 -19 10 -29 4 -25 44 -130 49 -126 2 2 -5 28 -16 56
-11 29 -20 63 -20 76 0 13 -7 27 -16 30 -10 4 -13 2 -7 -7z"/>
<path d="M1255 858 c1 -52 4 -72 13 -70 7 1 12 -2 12 -8 0 -5 5 -10 11 -10 6
0 8 8 4 20 -13 40 -22 121 -13 112 5 -5 10 -21 12 -36 1 -14 6 -29 9 -33 4 -3
7 -17 7 -30 0 -33 22 -25 31 11 7 24 2 34 -33 72 -22 24 -43 44 -47 44 -3 0
-6 -33 -6 -72z"/>
<path d="M2006 913 c-2 -10 -7 -34 -10 -53 -8 -44 8 -11 17 38 7 34 2 45 -7
15z"/>
<path d="M801 904 c0 -11 3 -14 6 -6 3 7 2 16 -1 19 -3 4 -6 -2 -5 -13z"/>
<path d="M1226 909 c-11 -35 -15 -95 -6 -109 14 -23 21 -6 21 55 0 56 -6 81
-15 54z"/>
<path d="M1006 875 c7 -49 54 -149 89 -190 22 -25 21 -22 -5 18 -35 53 -56
100 -76 167 l-14 45 6 -40z"/>
<path d="M2156 881 c-10 -11 -16 -26 -14 -34 2 -8 10 0 19 19 19 39 18 41 -5
15z"/>
<path d="M1911 836 c12 -10 59 -15 59 -6 0 5 -14 10 -32 10 -17 0 -29 -2 -27
-4z"/>
<path d="M2081 824 c0 -11 3 -14 6 -6 3 7 2 16 -1 19 -3 4 -6 -2 -5 -13z"/>
<path d="M921 823 c-1 -6 2 -19 5 -28 5 -12 9 -13 14 -4 5 7 8 -3 7 -24 0 -20
-5 -33 -9 -31 -5 3 -12 -5 -17 -18 -7 -16 -10 -18 -10 -6 -1 9 -5 20 -11 23
-14 9 0 -24 24 -57 15 -22 22 -25 33 -16 8 6 12 21 9 32 -3 11 0 26 5 33 13
14 2 36 -13 27 -6 -4 -8 1 -4 13 4 11 2 31 -3 44 -9 21 -10 22 -11 4 -1 -20
-1 -20 -10 0 -5 11 -9 15 -9 8z m41 -96 c-6 -7 -9 -22 -6 -34 3 -11 1 -24 -5
-27 -7 -4 -11 1 -11 14 0 13 -4 19 -12 14 -14 -9 -2 12 21 36 18 19 29 17 13
-3z"/>
<path d="M872 800 c0 -14 2 -19 5 -12 2 6 2 18 0 25 -3 6 -5 1 -5 -13z"/>
<path d="M1981 813 c-1 -6 -4 -20 -7 -30 -5 -17 -5 -17 6 0 6 10 9 23 6 30 -3
9 -5 9 -5 0z"/>
<path d="M2126 805 c-3 -9 -6 -22 -5 -28 0 -7 5 -1 10 12 5 13 8 26 5 28 -2 2
-6 -3 -10 -12z"/>
<path d="M1903 795 c-3 -9 -3 -18 -1 -21 3 -3 8 4 11 16 6 23 -1 27 -10 5z"/>
<path d="M1930 770 c-11 -22 -18 -40 -15 -40 2 0 14 18 25 40 11 22 18 40 15
40 -2 0 -14 -18 -25 -40z"/>
<path d="M1846 783 c-6 -14 -5 -15 5 -6 7 7 10 15 7 18 -3 3 -9 -2 -12 -12z"/>
<path d="M1130 783 c0 -6 8 -17 18 -24 16 -13 16 -13 2 6 -8 11 -16 22 -17 24
-2 2 -3 0 -3 -6z"/>
<path d="M1595 780 c-52 -7 -61 -14 -74 -52 -9 -26 -9 -30 1 -20 20 20 27 14
30 -25 5 -64 25 -50 23 16 -2 42 1 58 9 55 8 -3 10 -25 5 -77 -8 -77 1 -101
27 -75 13 13 14 23 3 77 -13 70 -4 91 40 91 14 0 33 5 41 10 16 11 -28 11
-105 0z"/>
<path d="M1112 739 c-1 -16 -1 -29 2 -29 7 0 13 50 7 55 -4 2 -8 -10 -9 -26z"/>
<path d="M1855 740 c-9 -16 -13 -30 -11 -30 3 0 12 14 21 30 9 17 13 30 11 30
-3 0 -12 -13 -21 -30z"/>
<path d="M1825 749 c-4 -6 -5 -12 -2 -15 2 -3 7 2 10 11 7 17 1 20 -8 4z"/>
<path d="M2106 745 c-9 -26 -7 -32 5 -12 6 10 9 21 6 23 -2 3 -7 -2 -11 -11z"/>
<path d="M1028 735 c16 -30 82 -121 82 -112 0 7 -65 103 -83 122 -5 6 -5 1 1
-10z"/>
<path d="M1649 733 c-13 -16 -12 -17 4 -4 16 13 21 21 13 21 -2 0 -10 -8 -17
-17z"/>
<path d="M1865 710 c-9 -16 -13 -30 -11 -30 3 0 12 14 21 30 9 17 13 30 11 30
-3 0 -12 -13 -21 -30z"/>
<path d="M977 713 c-7 -11 10 -40 18 -31 4 4 3 14 -3 24 -5 9 -12 12 -15 7z"/>
<path d="M1890 700 c-6 -11 -8 -20 -6 -20 3 0 10 9 16 20 6 11 8 20 6 20 -3 0
-10 -9 -16 -20z"/>
<path d="M2086 693 c-6 -14 -5 -15 5 -6 7 7 10 15 7 18 -3 3 -9 -2 -12 -12z"/>
<path d="M1469 660 c-13 -43 -9 -56 16 -47 10 4 15 20 15 47 0 51 -16 51 -31
0z"/>
<path d="M1825 689 c-4 -6 -5 -12 -2 -15 2 -3 7 2 10 11 7 17 1 20 -8 4z"/>
<path d="M1197 666 c3 -14 -2 -39 -11 -57 -16 -32 -13 -69 5 -69 8 0 14 30 10
53 0 4 8 7 19 7 17 0 20 6 19 38 l-1 37 -13 -35 -14 -35 6 43 c4 33 2 42 -9
42 -11 0 -14 -7 -11 -24z"/>
<path d="M1518 660 c2 -16 10 -30 17 -30 9 0 11 8 6 27 -10 38 -29 41 -23 3z"/>
<path d="M1334 648 c3 -13 6 -34 6 -47 0 -18 3 -22 11 -14 13 13 2 83 -13 83
-6 0 -8 -10 -4 -22z"/>
<path d="M1816 651 c-4 -5 3 -7 14 -4 23 6 26 13 6 13 -8 0 -17 -4 -20 -9z"/>
<path d="M2041 627 c-13 -21 -12 -21 5 -5 10 10 16 20 13 22 -3 3 -11 -5 -18
-17z"/>
<path d="M950 636 c0 -2 8 -10 18 -17 15 -13 16 -12 3 4 -13 16 -21 21 -21 13z"/>
<path d="M1831 624 c0 -11 3 -14 6 -6 3 7 2 16 -1 19 -3 4 -6 -2 -5 -13z"/>
<path d="M1508 609 c-19 -10 -25 -49 -9 -49 5 0 14 12 19 28 l10 27 2 -25 c1
-24 1 -24 15 -6 8 11 15 23 15 28 0 11 -31 10 -52 -3z"/>
<path d="M988 584 c6 -11 20 -28 33 -39 l23 -20 -23 32 c-26 38 -49 56 -33 27z"/>
<path d="M1460 591 c0 -6 -6 -11 -14 -11 -22 0 -30 -19 -16 -35 18 -22 30 -18
30 9 0 13 5 26 12 28 9 3 9 6 0 12 -7 4 -12 2 -12 -3z"/>
<path d="M2013 588 c-7 -9 -4 -18 8 -30 14 -14 18 -14 23 -2 3 8 0 13 -7 11
-7 -1 -11 6 -11 16 2 20 0 21 -13 5z"/>
<path d="M1220 570 c0 -11 0 -23 -1 -27 0 -4 4 -9 10 -11 6 -2 11 10 11 27 0
17 -4 31 -10 31 -5 0 -10 -9 -10 -20z"/>
<path d="M1830 565 c-13 -14 -20 -25 -16 -25 5 0 2 -8 -5 -17 -13 -16 -12 -17
4 -4 9 8 15 16 12 19 -3 3 5 16 17 29 12 13 19 23 16 23 -2 0 -15 -11 -28 -25z"/>
<path d="M1140 561 c0 -11 4 -22 9 -25 4 -3 6 6 3 19 -5 30 -12 33 -12 6z"/>
<path d="M1252 548 c4 -46 28 -49 28 -4 0 26 -4 36 -16 36 -11 0 -14 -8 -12
-32z"/>
<path d="M1354 569 c-20 -26 -23 -47 -8 -53 17 -7 27 13 22 45 -2 18 -5 20
-14 8z"/>
<path d="M1383 550 c0 -37 21 -34 25 3 2 18 -1 27 -11 27 -9 0 -14 -11 -14
-30z"/>
<path d="M1557 574 c-13 -13 -7 -24 14 -24 11 0 19 5 17 12 -5 14 -22 21 -31
12z"/>
<path d="M1470 530 c0 -11 7 -20 15 -20 17 0 18 2 9 24 -9 23 -24 20 -24 -4z"/>
<path d="M1922 498 c-27 -24 -62 -53 -78 -66 l-29 -23 36 23 c39 25 136 108
126 108 -4 0 -28 -19 -55 -42z"/>
<path d="M1090 519 c-12 -9 -12 -10 4 -5 11 4 27 -1 40 -11 l21 -18 -19 23
c-22 25 -25 26 -46 11z"/>
<path d="M1420 508 c0 -20 5 -28 18 -29 10 0 12 -3 5 -6 -18 -7 -16 -23 2 -23
23 0 37 36 20 50 -8 7 -15 9 -15 4 0 -4 -7 1 -15 12 -14 18 -14 18 -15 -8z"/>
<path d="M995 487 c-23 -24 -24 -27 -7 -18 15 8 22 8 22 1 0 -6 -10 -15 -22
-20 -17 -6 -19 -9 -6 -9 10 -1 27 13 40 29 15 20 25 27 32 20 5 -5 15 -10 21
-10 5 0 2 5 -8 11 -9 6 -15 14 -12 20 4 5 1 9 -4 9 -6 0 -11 -6 -11 -12 0 -9
-2 -10 -8 -2 -5 8 -17 1 -37 -19z"/>
<path d="M1829 499 l-24 -20 28 17 c15 9 27 18 27 20 0 8 -8 4 -31 -17z"/>
<path d="M1226 496 c3 -8 13 -12 25 -9 23 6 15 23 -11 23 -12 0 -17 -5 -14
-14z"/>
<path d="M1100 496 c0 -2 8 -10 18 -17 15 -13 16 -12 3 4 -13 16 -21 21 -21
13z"/>
<path d="M1132 435 c15 -16 29 -27 31 -24 3 2 -10 15 -27 28 l-31 24 27 -28z"/>
<path d="M1160 446 c0 -2 8 -10 18 -17 15 -13 16 -12 3 4 -13 16 -21 21 -21
13z"/>
<path d="M1700 420 c-9 -6 -10 -10 -3 -10 6 0 15 5 18 10 8 12 4 12 -15 0z"/>
<path d="M1191 373 c12 -33 28 -53 42 -53 6 0 1 10 -11 23 -12 13 -22 28 -22
35 0 6 -4 14 -10 17 -6 4 -6 -4 1 -22z"/>
<path d="M1660 368 c0 -11 22 -10 39 1 10 7 7 9 -12 8 -15 -1 -27 -5 -27 -9z"/>
<path d="M1597 363 c-3 -5 9 -9 26 -10 26 -1 28 0 12 7 -26 11 -33 12 -38 3z"/>
<path d="M1538 343 c7 -3 16 -2 19 1 4 3 -2 6 -13 5 -11 0 -14 -3 -6 -6z"/>
<path d="M1561 333 c-30 -2 -64 -11 -75 -19 -11 -8 -15 -14 -9 -14 7 0 15 5
18 10 3 6 30 10 60 10 30 0 57 5 60 10 3 6 5 9 3 8 -2 -1 -27 -3 -57 -5z"/>
<path d="M1638 333 c7 -3 16 -2 19 1 4 3 -2 6 -13 5 -11 0 -14 -3 -6 -6z"/>
<path d="M1255 310 c3 -5 16 -10 28 -9 21 0 21 1 2 9 -28 12 -37 12 -30 0z"/>
<path d="M1318 293 c7 -3 16 -2 19 1 4 3 -2 6 -13 5 -11 0 -14 -3 -6 -6z"/>
<path d="M1438 293 c7 -3 16 -2 19 1 4 3 -2 6 -13 5 -11 0 -14 -3 -6 -6z"/>
<path d="M750 221 c0 -6 11 -11 25 -11 14 0 25 -6 25 -14 0 -9 -8 -12 -25 -8
-23 4 -25 1 -25 -32 0 -23 4 -35 10 -31 6 4 8 15 5 26 -5 16 -1 19 25 19 28 0
31 3 28 28 -2 22 -8 28 -35 30 -19 2 -33 -1 -33 -7z"/>
<path d="M830 174 c0 -34 4 -53 10 -49 6 3 10 15 10 26 0 10 7 19 15 19 8 0
15 -9 15 -19 0 -11 5 -23 10 -26 6 -4 10 15 10 49 0 31 -4 56 -10 56 -5 0 -10
-11 -10 -25 0 -16 -6 -25 -15 -25 -9 0 -15 9 -15 25 0 14 -4 25 -10 25 -5 0
-10 -25 -10 -56z"/>
<path d="M912 180 c0 -28 4 -53 9 -56 5 -3 9 6 9 20 0 14 5 26 10 26 6 0 10
-9 10 -19 0 -11 5 -23 11 -27 8 -5 10 1 7 20 -3 14 -1 26 3 26 5 0 9 14 9 30
0 28 -3 30 -34 30 l-35 0 1 -50z m56 18 c-7 -19 -38 -22 -38 -4 0 10 9 16 21
16 12 0 19 -5 17 -12z"/>
<path d="M1000 190 c0 -22 0 -43 0 -47 0 -5 17 -9 37 -10 34 -1 35 -1 9 5 -42
10 -46 32 -6 32 19 0 29 4 25 10 -4 6 -16 10 -27 8 -12 -2 -23 3 -25 10 -3 8
6 12 26 12 17 0 31 5 31 10 0 6 -16 10 -35 10 -34 0 -35 -1 -35 -40z"/>
<path d="M1080 175 c0 -37 4 -54 11 -50 6 4 8 22 4 46 -6 35 -5 39 14 39 18 0
21 -6 21 -47 0 -33 3 -44 11 -36 5 5 9 30 7 54 -3 42 -5 44 -35 47 l-33 3 0
-56z"/>
<path d="M1167 224 c-11 -12 -8 -106 3 -99 6 3 10 24 10 46 0 28 4 39 15 39
11 0 15 -11 15 -39 0 -22 5 -43 11 -46 7 -5 9 11 7 47 -3 48 -5 53 -28 56 -14
2 -29 0 -33 -4z"/>
<path d="M1247 223 c-4 -3 -7 -26 -7 -50 0 -43 0 -43 35 -43 l35 0 0 50 c0 48
-1 50 -28 50 -16 0 -32 -3 -35 -7z m50 -45 c-2 -21 -10 -34 -20 -36 -13 -3
-17 4 -17 32 0 30 4 36 21 36 17 0 20 -5 16 -32z"/>
<path d="M1331 188 c4 -24 8 -46 9 -50 0 -5 9 -8 20 -8 11 0 20 3 20 8 1 4 5
26 9 50 5 23 5 42 1 42 -11 0 -20 -27 -20 -56 0 -39 -17 -28 -24 16 -3 22 -10
40 -15 40 -4 0 -5 -19 0 -42z"/>
<path d="M1410 175 c0 -36 4 -54 10 -50 6 4 8 15 5 26 -5 15 -1 19 14 19 16 0
21 -6 21 -25 0 -14 5 -25 11 -25 6 0 9 21 7 53 -3 51 -4 52 -35 55 l-33 3 0
-56z m50 19 c0 -9 -7 -14 -17 -12 -25 5 -28 28 -4 28 12 0 21 -6 21 -16z"/>
<path d="M1544 215 c-11 -27 4 -45 36 -45 16 0 30 5 30 10 0 6 -11 10 -25 10
-14 0 -25 5 -25 10 0 6 14 10 30 10 17 0 30 5 30 10 0 16 -70 12 -76 -5z"/>
<path d="M1630 181 l0 -51 36 0 35 0 -3 48 c-3 45 -4 47 -35 50 l-33 3 0 -50z
m50 -7 c0 -28 -3 -35 -17 -32 -12 2 -19 14 -21 36 -3 27 0 32 17 32 17 0 21
-6 21 -36z"/>
<path d="M1710 181 c0 -44 2 -49 25 -53 17 -4 25 -1 25 9 0 9 -6 13 -15 9 -12
-4 -15 4 -15 39 0 25 -4 45 -10 45 -5 0 -10 -22 -10 -49z"/>
<path d="M1772 183 c3 -48 3 -48 38 -48 33 0 35 2 36 35 1 55 -10 70 -16 20
-4 -32 -10 -46 -22 -48 -15 -3 -18 4 -18 42 0 26 -5 46 -11 46 -6 0 -9 -19 -7
-47z"/>
<path d="M1860 220 c0 -5 5 -10 10 -10 6 0 10 -21 10 -46 0 -27 4 -43 10 -39
6 3 10 24 10 46 0 21 5 39 10 39 6 0 10 5 10 10 0 6 -13 10 -30 10 -16 0 -30
-4 -30 -10z"/>
<path d="M1930 220 c0 -5 5 -10 10 -10 6 0 10 5 10 10 0 6 -4 10 -10 10 -5 0
-10 -4 -10 -10z"/>
<path d="M1967 223 c-4 -3 -7 -26 -7 -50 0 -43 0 -43 35 -43 l35 0 0 50 c0 48
-1 50 -28 50 -16 0 -32 -3 -35 -7z m53 -48 c0 -28 -4 -35 -20 -35 -16 0 -20 7
-20 35 0 28 4 35 20 35 16 0 20 -7 20 -35z"/>
<path d="M2048 179 c-1 -28 0 -53 5 -56 4 -2 7 16 7 41 0 39 3 46 19 46 16 0
21 -8 24 -47 3 -47 3 -47 5 10 2 57 2 57 -27 57 -28 0 -29 -2 -33 -51z"/>
<path d="M2130 200 c0 -25 4 -30 25 -30 16 0 25 -6 25 -16 0 -12 -7 -15 -25
-12 -14 3 -25 1 -25 -3 0 -5 16 -9 36 -9 33 0 35 2 32 28 -2 21 -9 28 -30 30
-38 4 -36 22 2 22 17 0 30 5 30 10 0 6 -16 10 -35 10 -32 0 -35 -2 -35 -30z"/>
<path d="M1930 166 c0 -19 5 -38 10 -41 6 -4 10 10 10 34 0 23 -4 41 -10 41
-5 0 -10 -15 -10 -34z"/>
<path d="M1601 152 c-1 -8 -11 -12 -26 -10 -13 2 -24 -1 -24 -7 0 -5 12 -8 27
-7 33 5 36 7 29 24 -4 11 -6 11 -6 0z"/>
</g>
</svg>
